<?xml version="1.0" standalone="no"?>
<!DOCTYPE svg PUBLIC "-//W3C//DTD SVG 20010904//EN"
 "http://www.w3.org/TR/2001/REC-SVG-20010904/DTD/svg10.dtd">
<svg version="1.0" xmlns="http://www.w3.org/2000/svg"
 width="512.000000pt" height="512.000000pt" viewBox="0 0 512.000000 512.000000"
 preserveAspectRatio="xMidYMid meet">
<metadata>
Created by potrace 1.14, written by Peter Selinger 2001-2017
</metadata>
<g transform="translate(0.000000,512.000000) scale(0.100000,-0.100000)"
fill="#000000" stroke="none">
<path d="M2330 5110 c-485 -48 -932 -222 -1319 -513 -117 -88 -318 -282 -423
-407 -299 -357 -493 -799 -564 -1285 -25 -168 -25 -533 0 -700 42 -276 124
-536 247 -784 129 -261 281 -470 491 -678 396 -393 877 -632 1448 -720 142
-21 528 -25 665 -5 591 85 1090 329 1494 733 404 404 648 903 733 1494 20 137
16 523 -5 665 -71 456 -231 842 -496 1193 -91 122 -284 323 -411 429 -344 288
-786 486 -1245 558 -148 23 -476 34 -615 20z m188 -1242 l2 -168 -570 0 -570
0 0 -470 0 -470 530 0 530 0 0 -170 0 -170 -530 0 -530 0 0 -645 0 -645 -232
2 -233 3 -3 1440 c-1 792 0 1446 3 1453 3 10 169 12 802 10 l798 -3 3 -167z
m1152 -558 l0 -370 230 0 230 0 0 -165 0 -165 -230 0 -230 0 0 -492 c0 -547 3
-574 64 -643 45 -51 90 -67 140 -50 22 8 52 23 68 35 21 16 40 20 75 18 l46
-3 73 -135 c48 -89 70 -138 63 -146 -14 -17 -137 -71 -204 -90 -90 -24 -340
-31 -428 -10 -92 22 -180 68 -237 125 -58 59 -85 109 -111 208 -18 71 -19 115
-19 630 l0 553 -180 0 -180 0 0 165 0 165 180 0 180 0 0 370 0 370 235 0 235
0 0 -370z"/>
</g>
</svg>
